<?xml version="1.0" encoding="utf-8"?>
<!-- Generator: Adobe Illustrator 16.0.0, SVG Export Plug-In . SVG Version: 6.00 Build 0)  -->
<!DOCTYPE svg PUBLIC "-//W3C//DTD SVG 1.1//EN" "http://www.w3.org/Graphics/SVG/1.1/DTD/svg11.dtd">
<svg version="1.1" id="Layer_1" xmlns="http://www.w3.org/2000/svg" xmlns:xlink="http://www.w3.org/1999/xlink" x="0px" y="0px"
	 width="100px" height="100px" viewBox="0 0 100 100" enable-background="new 0 0 100 100" xml:space="preserve">
<g>
	<path d="M71.633,2.28H28.367c-4.212,0-7.635,3.423-7.635,7.636v80.168c0,4.213,3.423,7.636,7.635,7.636h43.266
		c4.213,0,7.635-3.423,7.635-7.636V9.916C79.268,5.703,75.846,2.28,71.633,2.28z M43.001,9.255c0-1.044,0.84-1.884,1.884-1.884
		h10.23c1.043,0,1.884,0.84,1.884,1.884v0.05c0,1.044-0.841,1.884-1.884,1.884h-10.23c-1.044,0-1.884-0.84-1.884-1.884V9.255z
		 M50,94.856c-2.278,0-4.136-1.857-4.136-4.137c0-2.277,1.857-4.135,4.136-4.135c2.277,0,4.136,1.857,4.136,4.135
		C54.136,92.999,52.277,94.856,50,94.856z M72.905,82.449c0,0.699-0.573,1.272-1.272,1.272H28.367c-0.7,0-1.272-0.573-1.272-1.272
		V17.551c0-0.7,0.572-1.272,1.272-1.272h43.266c0.699,0,1.272,0.572,1.272,1.272V82.449z"/>
	<path d="M66.556,67.18h-33.11c-0.697,0-1.261,0.563-1.261,1.259v0.025c0,0.696,0.563,1.26,1.261,1.26h33.11
		c0.695,0,1.26-0.563,1.26-1.26v-0.025C67.815,67.743,67.251,67.18,66.556,67.18z"/>
	<path d="M66.556,74.814h-33.11c-0.697,0-1.261,0.564-1.261,1.26V76.1c0,0.695,0.563,1.26,1.261,1.26h33.11
		c0.695,0,1.26-0.564,1.26-1.26v-0.025C67.815,75.379,67.251,74.814,66.556,74.814z"/>
	<path d="M66.556,59.544h-33.11c-0.697,0-1.261,0.564-1.261,1.26v0.025c0,0.695,0.563,1.26,1.261,1.26h33.11
		c0.695,0,1.26-0.564,1.26-1.26v-0.025C67.815,60.108,67.251,59.544,66.556,59.544z"/>
	<path d="M47.614,48.091c1.862,0,3.617-0.457,5.174-1.247l5.593,5.592c0.497,0.497,1.147,0.746,1.799,0.746s1.303-0.249,1.8-0.746
		c0.994-0.994,0.994-2.604,0-3.599l-5.269-5.269c1.471-1.927,2.355-4.323,2.355-6.93c0-6.315-5.137-11.453-11.452-11.453
		s-11.453,5.138-11.453,11.453C36.161,42.953,41.299,48.091,47.614,48.091z M47.614,29.004c4.21,0,7.635,3.425,7.635,7.635
		s-3.425,7.636-7.635,7.636c-4.211,0-7.636-3.426-7.636-7.636S43.403,29.004,47.614,29.004z"/>
</g>
</svg>
