<?xml version="1.0" encoding="utf-8"?>
<!-- Generator: Adobe Illustrator 16.0.0, SVG Export Plug-In . SVG Version: 6.00 Build 0)  -->
<!DOCTYPE svg PUBLIC "-//W3C//DTD SVG 1.1//EN" "http://www.w3.org/Graphics/SVG/1.1/DTD/svg11.dtd">
<svg version="1.1" id="Layer_1" xmlns="http://www.w3.org/2000/svg" xmlns:xlink="http://www.w3.org/1999/xlink" x="0px" y="0px"
	 width="100px" height="100px" viewBox="0 0 100 100" enable-background="new 0 0 100 100" xml:space="preserve">
<g>
	<path d="M71.633,2.281H28.367c-4.212,0-7.635,3.423-7.635,7.635v80.168c0,4.213,3.423,7.635,7.635,7.635h43.266
		c4.213,0,7.635-3.422,7.635-7.635V9.916C79.268,5.704,75.846,2.281,71.633,2.281z M43.002,9.254c0-1.044,0.839-1.884,1.884-1.884
		h10.23c1.043,0,1.883,0.84,1.883,1.884v0.051c0,1.043-0.84,1.883-1.883,1.883h-10.23c-1.045,0-1.884-0.84-1.884-1.883V9.254z
		 M50,94.856c-2.277,0-4.136-1.857-4.136-4.135s1.858-4.136,4.136-4.136c2.278,0,4.136,1.858,4.136,4.136S52.278,94.856,50,94.856z
		 M72.905,82.449c0,0.7-0.572,1.272-1.272,1.272H28.367c-0.699,0-1.272-0.573-1.272-1.272V17.551c0-0.699,0.573-1.272,1.272-1.272
		h43.266c0.7,0,1.272,0.573,1.272,1.272V82.449z"/>
	<path d="M66.555,44.273H33.445c-0.696,0-1.26,0.564-1.26,1.26v0.025c0,0.697,0.563,1.26,1.26,1.26h33.109
		c0.697,0,1.261-0.563,1.261-1.26v-0.025C67.815,44.837,67.252,44.273,66.555,44.273z"/>
	<path d="M66.544,23.914h-3.818c-0.702,0-1.272,0.571-1.272,1.272v3.817c0,0.703,0.57,1.272,1.272,1.272h3.818
		c0.701,0,1.271-0.57,1.271-1.272v-3.817C67.815,24.484,67.245,23.914,66.544,23.914z"/>
	<path d="M52.546,30.276h3.817c0.702,0,1.271-0.57,1.271-1.272v-3.817c0-0.702-0.569-1.272-1.271-1.272h-3.817
		c-0.702,0-1.273,0.571-1.273,1.272v3.817C51.272,29.706,51.844,30.276,52.546,30.276z"/>
	<path d="M66.555,51.909H33.445c-0.696,0-1.26,0.564-1.26,1.26v0.025c0,0.696,0.563,1.26,1.26,1.26h33.109
		c0.697,0,1.261-0.564,1.261-1.26v-0.025C67.815,52.473,67.252,51.909,66.555,51.909z"/>
	<path d="M33.445,39.184h21.658c0.695,0,1.26-0.563,1.26-1.26v-0.024c0-0.697-0.564-1.26-1.26-1.26H33.445
		c-0.696,0-1.26,0.563-1.26,1.26v0.024C32.186,38.62,32.749,39.184,33.445,39.184z"/>
	<path d="M66.555,59.544H33.445c-0.696,0-1.26,0.564-1.26,1.26v0.024c0,0.696,0.563,1.26,1.26,1.26h33.109
		c0.697,0,1.261-0.564,1.261-1.26v-0.024C67.815,60.108,67.252,59.544,66.555,59.544z"/>
	<path d="M33.458,30.276h3.817c0.701,0,1.272-0.57,1.272-1.272v-3.817c0-0.702-0.571-1.272-1.272-1.272h-3.817
		c-0.703,0-1.272,0.571-1.272,1.272v3.817C32.186,29.706,32.755,30.276,33.458,30.276z"/>
	<path d="M43.638,30.276h3.817c0.702,0,1.272-0.57,1.272-1.272v-3.817c0-0.702-0.57-1.272-1.272-1.272h-3.817
		c-0.702,0-1.272,0.571-1.272,1.272v3.817C42.365,29.706,42.936,30.276,43.638,30.276z"/>
	<path d="M66.555,74.814H33.445c-0.696,0-1.26,0.564-1.26,1.26v0.025c0,0.696,0.563,1.26,1.26,1.26h33.109
		c0.697,0,1.261-0.564,1.261-1.26v-0.025C67.815,75.378,67.252,74.814,66.555,74.814z"/>
	<path d="M66.555,67.179H33.445c-0.696,0-1.26,0.564-1.26,1.26v0.025c0,0.696,0.563,1.26,1.26,1.26h33.109
		c0.697,0,1.261-0.564,1.261-1.26v-0.025C67.815,67.743,67.252,67.179,66.555,67.179z"/>
</g>
</svg>
