<?xml version="1.0" encoding="utf-8"?>
<!-- Generator: Adobe Illustrator 16.0.0, SVG Export Plug-In . SVG Version: 6.00 Build 0)  -->
<!DOCTYPE svg PUBLIC "-//W3C//DTD SVG 1.1//EN" "http://www.w3.org/Graphics/SVG/1.1/DTD/svg11.dtd">
<svg version="1.1" id="Layer_1" xmlns="http://www.w3.org/2000/svg" xmlns:xlink="http://www.w3.org/1999/xlink" x="0px" y="0px"
	 width="100px" height="100px" viewBox="0 0 100 100" enable-background="new 0 0 100 100" xml:space="preserve">
<g>
	<path d="M71.633,2.281H28.367c-4.212,0-7.635,3.422-7.635,7.635v80.168c0,4.213,3.423,7.635,7.635,7.635h43.266
		c4.213,0,7.635-3.422,7.635-7.635V9.916C79.268,5.703,75.846,2.281,71.633,2.281z M43.001,9.254c0-1.043,0.84-1.883,1.885-1.883
		h10.229c1.044,0,1.884,0.84,1.884,1.883v0.051c0,1.043-0.84,1.883-1.884,1.883H44.886c-1.045,0-1.885-0.84-1.885-1.883V9.254z
		 M50,94.855c-2.277,0-4.135-1.857-4.135-4.135c0-2.279,1.857-4.135,4.135-4.135c2.278,0,4.136,1.855,4.136,4.135
		C54.136,92.998,52.278,94.855,50,94.855z M72.905,82.449c0,0.699-0.572,1.271-1.272,1.271H28.367c-0.699,0-1.272-0.572-1.272-1.271
		V17.551c0-0.701,0.573-1.273,1.272-1.273h43.266c0.7,0,1.272,0.572,1.272,1.273V82.449z"/>
	<path d="M66.555,74.814h-33.11c-0.695,0-1.26,0.564-1.26,1.26V76.1c0,0.695,0.564,1.26,1.26,1.26h33.11
		c0.697,0,1.261-0.564,1.261-1.26v-0.025C67.815,75.379,67.252,74.814,66.555,74.814z"/>
	<path d="M66.555,67.18h-33.11c-0.695,0-1.26,0.563-1.26,1.26v0.025c0,0.695,0.564,1.26,1.26,1.26h33.11
		c0.697,0,1.261-0.564,1.261-1.26v-0.025C67.815,67.742,67.252,67.18,66.555,67.18z"/>
	<path d="M65.271,39.184c-1.656,0-3.058,1.066-3.584,2.545h-3.523c-0.207-1.332-0.729-2.555-1.492-3.6l2.492-2.49
		c0.505,0.242,1.058,0.383,1.634,0.383c1.021,0,1.979-0.398,2.699-1.119c1.488-1.488,1.488-3.908,0-5.396
		c-1.439-1.443-3.956-1.443-5.398,0c-1.171,1.17-1.405,2.912-0.732,4.33l-2.494,2.494c-1.044-0.764-2.268-1.285-3.598-1.492v-3.523
		c1.479-0.527,2.545-1.928,2.545-3.584c0-2.105-1.713-3.816-3.818-3.816c-2.104,0-3.817,1.711-3.817,3.816
		c0,1.656,1.067,3.057,2.545,3.584v3.523c-1.331,0.207-2.555,0.729-3.599,1.492l-2.492-2.494c0.671-1.418,0.438-3.16-0.733-4.33
		c-1.443-1.443-3.96-1.443-5.399,0c-1.488,1.488-1.488,3.908,0,5.396c0.72,0.721,1.68,1.119,2.7,1.119
		c0.574,0,1.128-0.141,1.634-0.383l2.492,2.49c-0.764,1.045-1.285,2.268-1.493,3.6h-3.522c-0.527-1.479-1.928-2.545-3.585-2.545
		c-2.104,0-3.816,1.713-3.816,3.818c0,2.104,1.712,3.816,3.816,3.816c1.657,0,3.058-1.066,3.585-2.545h3.522
		c0.208,1.332,0.729,2.555,1.493,3.598l-2.505,2.506c-1.413-0.639-3.195-0.404-4.321,0.723c-1.488,1.488-1.488,3.908,0,5.396
		c0.72,0.723,1.68,1.119,2.7,1.119c1.016,0,1.976-0.396,2.699-1.119c1.171-1.17,1.404-2.912,0.733-4.332l2.492-2.492
		c1.044,0.764,2.268,1.285,3.599,1.492v3.523c-1.478,0.527-2.545,1.928-2.545,3.584c0,2.105,1.713,3.816,3.817,3.816
		c2.105,0,3.818-1.711,3.818-3.816c0-1.656-1.066-3.057-2.545-3.584v-3.523c1.33-0.207,2.554-0.729,3.598-1.492l2.494,2.492
		c-0.673,1.42-0.438,3.162,0.732,4.332c0.724,0.723,1.683,1.119,2.699,1.119c1.021,0,1.979-0.396,2.699-1.119
		c1.488-1.488,1.488-3.908,0-5.396c-1.127-1.127-2.908-1.361-4.32-0.723l-2.505-2.506c0.763-1.043,1.285-2.266,1.492-3.598h3.523
		c0.526,1.479,1.928,2.545,3.584,2.545c2.105,0,3.817-1.713,3.817-3.816C69.088,40.896,67.376,39.184,65.271,39.184z M59.897,31.305
		c0.242-0.24,0.561-0.373,0.899-0.373c0.341,0,0.659,0.133,0.899,0.373c0.497,0.494,0.497,1.303,0,1.799
		c-0.479,0.48-1.316,0.48-1.799,0C59.402,32.607,59.402,31.799,59.897,31.305z M40.104,33.104c-0.483,0.48-1.319,0.48-1.8,0
		c-0.496-0.496-0.496-1.305,0-1.799c0.239-0.24,0.56-0.373,0.9-0.373c0.337,0,0.657,0.133,0.899,0.373
		C40.599,31.799,40.599,32.607,40.104,33.104z M34.729,44.273c-0.702,0-1.272-0.57-1.272-1.271c0-0.703,0.57-1.273,1.272-1.273
		s1.272,0.57,1.272,1.273C36.002,43.703,35.432,44.273,34.729,44.273z M40.104,54.697c-0.483,0.479-1.319,0.479-1.8,0
		c-0.496-0.494-0.496-1.303,0-1.799c0.239-0.238,0.56-0.373,0.9-0.373c0.337,0,0.657,0.135,0.899,0.373
		C40.599,53.395,40.599,54.203,40.104,54.697z M59.897,52.898c0.242-0.238,0.561-0.373,0.899-0.373c0.341,0,0.659,0.135,0.899,0.373
		c0.497,0.496,0.497,1.305,0,1.799c-0.479,0.479-1.316,0.479-1.799,0C59.402,54.203,59.402,53.395,59.897,52.898z M50,26.457
		c0.702,0,1.273,0.572,1.273,1.273S50.702,29.004,50,29.004c-0.701,0-1.272-0.572-1.272-1.273S49.299,26.457,50,26.457z M50,59.543
		c-0.701,0-1.272-0.57-1.272-1.271c0-0.703,0.571-1.273,1.272-1.273c0.702,0,1.273,0.57,1.273,1.273
		C51.273,58.973,50.702,59.543,50,59.543z M50,48.727c-3.156,0-5.727-2.568-5.727-5.725c0-3.158,2.57-5.729,5.727-5.729
		c3.157,0,5.727,2.57,5.727,5.729C55.727,46.158,53.157,48.727,50,48.727z M65.271,44.273c-0.702,0-1.272-0.57-1.272-1.271
		c0-0.703,0.57-1.273,1.272-1.273s1.272,0.57,1.272,1.273C66.543,43.703,65.973,44.273,65.271,44.273z"/>
</g>
</svg>
