<?xml version="1.0" encoding="utf-8"?>
<!-- Generator: Adobe Illustrator 16.0.0, SVG Export Plug-In . SVG Version: 6.00 Build 0)  -->
<!DOCTYPE svg PUBLIC "-//W3C//DTD SVG 1.1//EN" "http://www.w3.org/Graphics/SVG/1.1/DTD/svg11.dtd">
<svg version="1.1" id="Layer_1" xmlns="http://www.w3.org/2000/svg" xmlns:xlink="http://www.w3.org/1999/xlink" x="0px" y="0px"
	 width="100px" height="100px" viewBox="0 0 100 100" enable-background="new 0 0 100 100" xml:space="preserve">
<path d="M56.999,9.254c0-1.043-0.84-1.884-1.883-1.884h-10.23c-1.045,0-1.884,0.841-1.884,1.884v0.05
	c0,1.043,0.839,1.884,1.884,1.884h10.23c1.043,0,1.883-0.84,1.883-1.884V9.254z"/>
<g>
	<path d="M71.633,2.28H28.367c-4.212,0-7.635,3.423-7.635,7.635v80.168c0,4.212,3.423,7.636,7.635,7.636h43.266
		c4.213,0,7.635-3.424,7.635-7.636V9.916C79.268,5.703,75.846,2.28,71.633,2.28z M50,94.855c-2.277,0-4.136-1.857-4.136-4.136
		c0-2.277,1.858-4.136,4.136-4.136c2.278,0,4.136,1.858,4.136,4.136C54.136,92.998,52.278,94.855,50,94.855z M72.905,82.449
		c0,0.699-0.572,1.272-1.272,1.272H28.367c-0.699,0-1.272-0.573-1.272-1.272V17.551c0-0.7,0.573-1.272,1.272-1.272h43.266
		c0.7,0,1.272,0.573,1.272,1.272V82.449z"/>
	<path d="M45.864,68.451c-0.877,0-1.59,0.713-1.59,1.591c0,0.318,0.095,0.611,0.255,0.86l-2.617,3.364
		c-0.158-0.055-0.324-0.089-0.502-0.089c-0.357,0-0.687,0.124-0.952,0.324l-3.237-2.158c0.032-0.126,0.055-0.257,0.055-0.393
		c0-0.878-0.714-1.591-1.591-1.591c-0.878,0-1.591,0.713-1.591,1.591c0,0.285,0.082,0.546,0.211,0.777l-2.482,2.839
		c-0.184-0.073-0.382-0.117-0.592-0.117c-0.877,0-1.59,0.713-1.59,1.591c0,0.877,0.713,1.591,1.59,1.591
		c0.878,0,1.592-0.714,1.592-1.591c0-0.286-0.081-0.547-0.212-0.778l2.482-2.838c0.184,0.073,0.382,0.117,0.592,0.117
		c0.359,0,0.688-0.125,0.953-0.325l3.238,2.159c-0.034,0.125-0.056,0.256-0.056,0.393c0,0.877,0.714,1.591,1.59,1.591
		c0.878,0,1.592-0.714,1.592-1.591c0-0.318-0.096-0.611-0.256-0.861l2.616-3.364c0.16,0.055,0.326,0.09,0.502,0.09
		c0.877,0,1.591-0.714,1.591-1.591C47.455,69.165,46.741,68.451,45.864,68.451z"/>
	<path d="M38.548,42.365v-5.727c-3.514,0-6.362,2.85-6.362,6.363h5.726C38.263,43.001,38.548,42.715,38.548,42.365z"/>
	<path d="M44.825,44.061c0.57-3.533-1.772-6.638-5.005-7.293v6.233c0,0.702-0.57,1.272-1.272,1.272h-6.233
		c0.656,3.232,3.761,5.575,7.293,5.006C42.246,48.852,44.398,46.699,44.825,44.061z"/>
	<rect x="36.002" y="25.186" width="3.818" height="7.635"/>
	<rect x="30.913" y="29.003" width="3.816" height="3.817"/>
	<rect x="41.093" y="20.096" width="3.817" height="12.725"/>
	<path d="M51.261,30.275h16.555c0.696,0,1.26-0.563,1.26-1.26v-0.024c0-0.696-0.563-1.26-1.26-1.26H51.261
		c-0.696,0-1.261,0.564-1.261,1.26v0.024C50,29.712,50.564,30.275,51.261,30.275z"/>
	<path d="M38.94,65.967v-1.354c1.794-0.236,2.84-1.516,2.84-3.017c0-3.298-4.96-2.988-4.96-4.74c0-0.735,0.691-1.25,1.574-1.25
		c1.311,0,2.311,0.912,2.311,0.912l0.824-1.544c0,0-0.884-0.928-2.589-1.075v-1.355h-1.268v1.384
		c-1.633,0.266-2.766,1.442-2.766,2.958c0,3.164,4.974,2.987,4.974,4.752c0,0.855-0.722,1.267-1.515,1.267
		c-1.473,0-2.604-1.103-2.604-1.103l-1.032,1.426c0,0,1.045,1.164,2.943,1.385v1.354H38.94z"/>
	<path d="M67.827,53.181H51.272c-0.695,0-1.26,0.564-1.26,1.26v0.025c0,0.695,0.564,1.26,1.26,1.26h16.555
		c0.697,0,1.261-0.564,1.261-1.26v-0.025C69.088,53.746,68.524,53.181,67.827,53.181z"/>
	<path d="M67.827,44.273H51.272c-0.695,0-1.26,0.564-1.26,1.26v0.024c0,0.696,0.564,1.26,1.26,1.26h16.555
		c0.697,0,1.261-0.564,1.261-1.26v-0.024C69.088,44.837,68.524,44.273,67.827,44.273z"/>
	<path d="M51.261,23.913h16.555c0.696,0,1.26-0.564,1.26-1.26v-0.025c0-0.696-0.563-1.26-1.26-1.26H51.261
		c-0.696,0-1.261,0.564-1.261,1.26v0.025C50,23.349,50.564,23.913,51.261,23.913z"/>
	<path d="M67.827,74.813H51.272c-0.695,0-1.26,0.564-1.26,1.261v0.024c0,0.696,0.564,1.261,1.26,1.261h16.555
		c0.697,0,1.261-0.564,1.261-1.261v-0.024C69.088,75.378,68.524,74.813,67.827,74.813z"/>
	<path d="M67.827,68.451H51.272c-0.695,0-1.26,0.564-1.26,1.26v0.025c0,0.696,0.564,1.26,1.26,1.26h16.555
		c0.697,0,1.261-0.563,1.261-1.26v-0.025C69.088,69.016,68.524,68.451,67.827,68.451z"/>
	<path d="M67.827,59.543H51.272c-0.695,0-1.26,0.564-1.26,1.26v0.025c0,0.696,0.564,1.26,1.26,1.26h16.555
		c0.697,0,1.261-0.564,1.261-1.26v-0.025C69.088,60.108,68.524,59.543,67.827,59.543z"/>
	<path d="M67.827,37.911H51.272c-0.695,0-1.26,0.563-1.26,1.26v0.025c0,0.695,0.564,1.26,1.26,1.26h16.555
		c0.697,0,1.261-0.564,1.261-1.26v-0.025C69.088,38.475,68.524,37.911,67.827,37.911z"/>
</g>
</svg>
