<?xml version="1.0" encoding="utf-8"?>
<!-- Generator: Adobe Illustrator 16.0.0, SVG Export Plug-In . SVG Version: 6.00 Build 0)  -->
<!DOCTYPE svg PUBLIC "-//W3C//DTD SVG 1.1//EN" "http://www.w3.org/Graphics/SVG/1.1/DTD/svg11.dtd">
<svg version="1.1" id="Layer_1" xmlns="http://www.w3.org/2000/svg" xmlns:xlink="http://www.w3.org/1999/xlink" x="0px" y="0px"
	 width="100px" height="100px" viewBox="0 0 100 100" enable-background="new 0 0 100 100" xml:space="preserve">
<g>
	<path d="M71.633,2.28H28.368c-4.212,0-7.636,3.423-7.636,7.636v80.168c0,4.213,3.424,7.636,7.636,7.636h43.265
		c4.213,0,7.635-3.423,7.635-7.636V9.916C79.268,5.703,75.846,2.28,71.633,2.28z M43.001,9.255c0-1.044,0.84-1.884,1.884-1.884
		h10.23C56.16,7.371,57,8.211,57,9.255v0.05c0,1.044-0.84,1.884-1.885,1.884h-10.23c-1.044,0-1.884-0.84-1.884-1.884V9.255z
		 M50,94.856c-2.278,0-4.135-1.857-4.135-4.137c0-2.277,1.856-4.135,4.135-4.135c2.279,0,4.136,1.857,4.136,4.135
		C54.137,92.999,52.279,94.856,50,94.856z M72.906,82.449c0,0.699-0.572,1.272-1.273,1.272H28.368c-0.699,0-1.272-0.573-1.272-1.272
		V17.551c0-0.7,0.573-1.272,1.272-1.272h43.265c0.701,0,1.273,0.572,1.273,1.272V82.449z"/>
	<path d="M66.555,74.814h-33.11c-0.696,0-1.26,0.564-1.26,1.26V76.1c0,0.695,0.563,1.26,1.26,1.26h33.11
		c0.697,0,1.262-0.564,1.262-1.26v-0.025C67.816,75.379,67.252,74.814,66.555,74.814z"/>
	<path d="M66.555,59.544h-33.11c-0.696,0-1.26,0.564-1.26,1.26v0.025c0,0.695,0.563,1.26,1.26,1.26h33.11
		c0.697,0,1.262-0.564,1.262-1.26v-0.025C67.816,60.108,67.252,59.544,66.555,59.544z"/>
	<path d="M66.555,67.18h-33.11c-0.696,0-1.26,0.563-1.26,1.259v0.025c0,0.696,0.563,1.26,1.26,1.26h33.11
		c0.697,0,1.262-0.563,1.262-1.26v-0.025C67.816,67.743,67.252,67.18,66.555,67.18z"/>
	<path d="M61.891,28.489c-0.59-1.817-1.664-1.858-2.389-0.09L55.09,39.184l-3.91-6.844c-0.649-1.135-1.658-1.106-2.244,0.063
		l-5.299,10.599l-3.32-4.744c-0.622-0.89-1.584-0.854-2.139,0.083l-6.13,10.376c-0.626,1.056-0.131,1.92,1.094,1.92h34.196
		c0.963,0,1.506-0.749,1.209-1.665L61.891,28.489z"/>
</g>
</svg>
