<?xml version="1.0" encoding="utf-8"?>
<!-- Generator: Adobe Illustrator 16.0.0, SVG Export Plug-In . SVG Version: 6.00 Build 0)  -->
<!DOCTYPE svg PUBLIC "-//W3C//DTD SVG 1.1//EN" "http://www.w3.org/Graphics/SVG/1.1/DTD/svg11.dtd">
<svg version="1.1" id="Layer_1" xmlns="http://www.w3.org/2000/svg" xmlns:xlink="http://www.w3.org/1999/xlink" x="0px" y="0px"
	 width="100px" height="100px" viewBox="0 0 100 100" enable-background="new 0 0 100 100" xml:space="preserve">
<g>
	<path d="M71.633,2.281H28.367c-4.212,0-7.635,3.423-7.635,7.635v80.168c0,4.213,3.423,7.635,7.635,7.635h43.266
		c4.213,0,7.635-3.422,7.635-7.635V9.916C79.268,5.704,75.846,2.281,71.633,2.281z M43.001,9.254c0-1.044,0.84-1.884,1.885-1.884
		h10.229c1.044,0,1.884,0.84,1.884,1.884v0.051c0,1.043-0.84,1.883-1.884,1.883H44.886c-1.045,0-1.885-0.84-1.885-1.883V9.254z
		 M50,94.856c-2.277,0-4.135-1.857-4.135-4.135s1.857-4.136,4.135-4.136c2.278,0,4.136,1.858,4.136,4.136S52.278,94.856,50,94.856z
		 M72.905,82.449c0,0.7-0.572,1.272-1.272,1.272H28.367c-0.699,0-1.272-0.573-1.272-1.272V17.551c0-0.699,0.573-1.272,1.272-1.272
		h43.266c0.7,0,1.272,0.573,1.272,1.272V82.449z"/>
	<path d="M66.555,59.544h-33.11c-0.695,0-1.26,0.564-1.26,1.26v0.024c0,0.696,0.564,1.26,1.26,1.26h33.11
		c0.697,0,1.261-0.564,1.261-1.26v-0.024C67.815,60.108,67.252,59.544,66.555,59.544z"/>
	<path d="M64.635,29.003c-1.758,0-3.182,1.424-3.182,3.182c0,0.635,0.191,1.224,0.512,1.722l-5.231,6.728
		c-0.319-0.107-0.654-0.179-1.007-0.179c-0.718,0-1.374,0.247-1.907,0.649l-6.474-4.316c0.064-0.253,0.109-0.514,0.109-0.787
		c0-1.757-1.424-3.181-3.182-3.181c-1.757,0-3.181,1.424-3.181,3.181c0,0.569,0.161,1.096,0.424,1.558l-4.964,5.674
		c-0.369-0.148-0.766-0.233-1.187-0.233c-1.757,0-3.182,1.424-3.182,3.181c0,1.757,1.425,3.182,3.182,3.182s3.182-1.424,3.182-3.182
		c0-0.569-0.161-1.096-0.424-1.558l4.964-5.674c0.368,0.148,0.766,0.233,1.186,0.233c0.719,0,1.375-0.247,1.907-0.648l6.475,4.316
		c-0.065,0.253-0.109,0.513-0.109,0.787c0,1.757,1.423,3.181,3.181,3.181s3.182-1.424,3.182-3.181c0-0.636-0.192-1.225-0.513-1.722
		l5.233-6.728c0.318,0.107,0.652,0.178,1.006,0.178c1.757,0,3.181-1.424,3.181-3.181C67.815,30.428,66.392,29.003,64.635,29.003z"/>
	<path d="M66.555,74.814h-33.11c-0.695,0-1.26,0.564-1.26,1.26v0.025c0,0.696,0.564,1.26,1.26,1.26h33.11
		c0.697,0,1.261-0.564,1.261-1.26v-0.025C67.815,75.378,67.252,74.814,66.555,74.814z"/>
	<path d="M66.555,67.179h-33.11c-0.695,0-1.26,0.564-1.26,1.26v0.025c0,0.696,0.564,1.26,1.26,1.26h33.11
		c0.697,0,1.261-0.564,1.261-1.26v-0.025C67.815,67.743,67.252,67.179,66.555,67.179z"/>
</g>
</svg>
