<?xml version="1.0" encoding="utf-8"?>
<!-- Generator: Adobe Illustrator 16.0.0, SVG Export Plug-In . SVG Version: 6.00 Build 0)  -->
<!DOCTYPE svg PUBLIC "-//W3C//DTD SVG 1.1//EN" "http://www.w3.org/Graphics/SVG/1.1/DTD/svg11.dtd">
<svg version="1.1" id="Layer_1" xmlns="http://www.w3.org/2000/svg" xmlns:xlink="http://www.w3.org/1999/xlink" x="0px" y="0px"
	 width="100px" height="100px" viewBox="0 0 100 100" enable-background="new 0 0 100 100" xml:space="preserve">
<g>
	<path d="M71.633,2.28H28.367c-4.213,0-7.635,3.423-7.635,7.635v80.168c0,4.212,3.422,7.636,7.635,7.636h43.266
		c4.213,0,7.635-3.424,7.635-7.636V9.916C79.268,5.704,75.846,2.28,71.633,2.28z M43.001,9.254c0-1.043,0.84-1.884,1.884-1.884
		h10.23c1.043,0,1.884,0.841,1.884,1.884v0.051c0,1.043-0.841,1.883-1.884,1.883h-10.23c-1.044,0-1.884-0.84-1.884-1.883V9.254z
		 M50,94.855c-2.278,0-4.136-1.857-4.136-4.136c0-2.277,1.857-4.136,4.136-4.136c2.277,0,4.136,1.858,4.136,4.136
		C54.136,92.998,52.277,94.855,50,94.855z M72.905,82.449c0,0.699-0.573,1.272-1.272,1.272H28.367c-0.7,0-1.272-0.573-1.272-1.272
		V17.551c0-0.7,0.572-1.272,1.272-1.272h43.266c0.699,0,1.272,0.573,1.272,1.272V82.449z"/>
	<path d="M64.634,39.184c-1.757,0-3.181,1.424-3.181,3.181c0,0.636,0.19,1.224,0.512,1.722l-5.232,6.729
		c-0.317-0.107-0.653-0.179-1.006-0.179c-0.719,0-1.375,0.246-1.906,0.648l-6.475-4.316c0.064-0.253,0.109-0.515,0.109-0.787
		c0-1.757-1.425-3.181-3.182-3.181s-3.182,1.424-3.182,3.181c0,0.568,0.162,1.095,0.424,1.558l-4.964,5.675
		c-0.368-0.149-0.766-0.233-1.186-0.233c-1.758,0-3.182,1.424-3.182,3.181s1.424,3.181,3.182,3.181c1.757,0,3.181-1.424,3.181-3.181
		c0-0.569-0.161-1.096-0.424-1.558l4.965-5.674c0.368,0.148,0.766,0.233,1.186,0.233c0.719,0,1.374-0.247,1.906-0.649l6.475,4.315
		c-0.064,0.254-0.109,0.514-0.109,0.787c0,1.757,1.424,3.182,3.182,3.182c1.757,0,3.181-1.424,3.181-3.182
		c0-0.636-0.191-1.226-0.512-1.723l5.232-6.727c0.318,0.106,0.652,0.179,1.006,0.179c1.758,0,3.182-1.424,3.182-3.182
		C67.815,40.608,66.392,39.184,64.634,39.184z"/>
</g>
</svg>
