<?xml version="1.0" encoding="utf-8"?>
<!-- Generator: Adobe Illustrator 16.0.0, SVG Export Plug-In . SVG Version: 6.00 Build 0)  -->
<!DOCTYPE svg PUBLIC "-//W3C//DTD SVG 1.1//EN" "http://www.w3.org/Graphics/SVG/1.1/DTD/svg11.dtd">
<svg version="1.1" id="Layer_1" xmlns="http://www.w3.org/2000/svg" xmlns:xlink="http://www.w3.org/1999/xlink" x="0px" y="0px"
	 width="100px" height="100px" viewBox="0 0 100 100" enable-background="new 0 0 100 100" xml:space="preserve">
<g>
	<path d="M71.633,2.281H28.367c-4.212,0-7.635,3.422-7.635,7.635v80.168c0,4.213,3.423,7.635,7.635,7.635h43.266
		c4.213,0,7.635-3.422,7.635-7.635V9.916C79.268,5.703,75.846,2.281,71.633,2.281z M43.001,9.254c0-1.043,0.841-1.883,1.884-1.883
		h10.23c1.044,0,1.884,0.84,1.884,1.883v0.051c0,1.043-0.84,1.883-1.884,1.883h-10.23c-1.043,0-1.884-0.84-1.884-1.883V9.254z
		 M50,94.855c-2.277,0-4.136-1.857-4.136-4.135c0-2.279,1.858-4.135,4.136-4.135c2.278,0,4.136,1.855,4.136,4.135
		C54.136,92.998,52.278,94.855,50,94.855z M72.905,82.449c0,0.699-0.572,1.271-1.272,1.271H28.367c-0.7,0-1.272-0.572-1.272-1.271
		V17.551c0-0.701,0.572-1.273,1.272-1.273h43.266c0.7,0,1.272,0.572,1.272,1.273V82.449z"/>
	<path d="M66.556,67.18h-33.11c-0.696,0-1.261,0.563-1.261,1.26v0.025c0,0.695,0.564,1.26,1.261,1.26h33.11
		c0.695,0,1.26-0.564,1.26-1.26v-0.025C67.815,67.742,67.251,67.18,66.556,67.18z"/>
	<path d="M66.543,50.637H34.729V27.73c0-0.703-0.57-1.273-1.272-1.273c-0.701,0-1.272,0.57-1.272,1.273v22.906
		c0,1.4,1.142,2.545,2.545,2.545h31.813c0.702,0,1.272-0.57,1.272-1.273S67.245,50.637,66.543,50.637z"/>
	<path d="M66.556,74.814h-33.11c-0.696,0-1.261,0.564-1.261,1.26V76.1c0,0.695,0.564,1.26,1.261,1.26h33.11
		c0.695,0,1.26-0.564,1.26-1.26v-0.025C67.815,75.379,67.251,74.814,66.556,74.814z"/>
	<path d="M66.556,59.543h-33.11c-0.696,0-1.261,0.564-1.261,1.26v0.025c0,0.695,0.564,1.26,1.261,1.26h33.11
		c0.695,0,1.26-0.564,1.26-1.26v-0.025C67.815,60.107,67.251,59.543,66.556,59.543z"/>
	<polygon points="46.577,39.795 51.634,36.764 66.543,34.051 66.543,27.73 52.545,30.275 47.455,34.094 42.364,30.275 
		37.274,34.094 37.274,40.674 42.364,35.584 	"/>
	<polygon points="66.543,36.639 52.545,39.184 46.183,43.002 42.364,39.184 37.274,44.273 37.274,48.09 66.543,48.09 	"/>
</g>
</svg>
