<?xml version="1.0" encoding="utf-8"?>
<!-- Generator: Adobe Illustrator 16.0.0, SVG Export Plug-In . SVG Version: 6.00 Build 0)  -->
<!DOCTYPE svg PUBLIC "-//W3C//DTD SVG 1.1//EN" "http://www.w3.org/Graphics/SVG/1.1/DTD/svg11.dtd">
<svg version="1.1" id="Layer_1" xmlns="http://www.w3.org/2000/svg" xmlns:xlink="http://www.w3.org/1999/xlink" x="0px" y="0px"
	 width="100px" height="100px" viewBox="0 0 100 100" enable-background="new 0 0 100 100" xml:space="preserve">
<g>
	<path d="M71.633,2.281H28.367c-4.211,0-7.635,3.422-7.635,7.635v80.168c0,4.213,3.424,7.635,7.635,7.635h43.266
		c4.213,0,7.635-3.422,7.635-7.635V9.916C79.268,5.703,75.846,2.281,71.633,2.281z M43.002,9.254c0-1.043,0.839-1.883,1.883-1.883
		h10.231c1.043,0,1.883,0.84,1.883,1.883v0.051c0,1.043-0.84,1.883-1.883,1.883H44.885c-1.044,0-1.883-0.84-1.883-1.883V9.254z
		 M50,94.855c-2.277,0-4.136-1.857-4.136-4.135c0-2.279,1.858-4.135,4.136-4.135c2.278,0,4.136,1.855,4.136,4.135
		C54.136,92.998,52.278,94.855,50,94.855z M72.905,82.449c0,0.699-0.572,1.271-1.272,1.271H28.367c-0.699,0-1.272-0.572-1.272-1.271
		V17.551c0-0.701,0.573-1.273,1.272-1.273h43.266c0.7,0,1.272,0.572,1.272,1.273V82.449z"/>
	<path d="M65.271,44.273c-1.656,0-3.058,1.068-3.584,2.545h-3.523c-0.207-1.33-0.729-2.555-1.492-3.6l2.492-2.49
		c0.506,0.242,1.059,0.383,1.634,0.383c1.021,0,1.979-0.398,2.699-1.119c1.488-1.488,1.488-3.91,0-5.396
		c-1.439-1.443-3.955-1.443-5.398,0c-1.171,1.17-1.405,2.912-0.732,4.33l-2.493,2.494c-1.045-0.764-2.269-1.285-3.6-1.492v-3.523
		c1.479-0.527,2.546-1.928,2.546-3.584c0-2.105-1.713-3.816-3.818-3.816c-2.104,0-3.817,1.711-3.817,3.816
		c0,1.656,1.067,3.057,2.545,3.584v3.523c-1.331,0.207-2.555,0.729-3.598,1.492l-2.493-2.494c0.671-1.418,0.438-3.16-0.734-4.33
		c-1.441-1.443-3.958-1.443-5.399,0c-1.488,1.486-1.488,3.908,0,5.396c0.721,0.721,1.682,1.119,2.7,1.119
		c0.576,0,1.128-0.141,1.635-0.383l2.492,2.49c-0.764,1.045-1.285,2.27-1.492,3.6h-3.524c-0.527-1.477-1.927-2.545-3.584-2.545
		c-2.104,0-3.816,1.713-3.816,3.816c0,2.105,1.713,3.818,3.816,3.818c1.657,0,3.057-1.066,3.584-2.545h3.524
		c0.207,1.33,0.729,2.555,1.492,3.6l-2.505,2.504c-1.414-0.639-3.193-0.404-4.322,0.723c-1.488,1.488-1.488,3.908,0,5.396
		c0.721,0.723,1.682,1.119,2.7,1.119s1.979-0.396,2.699-1.119c1.173-1.17,1.405-2.912,0.734-4.33l2.493-2.494
		c1.043,0.762,2.267,1.285,3.598,1.492v3.523c-1.478,0.527-2.545,1.928-2.545,3.584c0,2.104,1.714,3.818,3.817,3.818
		c2.105,0,3.818-1.715,3.818-3.818c0-1.656-1.067-3.057-2.546-3.584v-3.523c1.331-0.207,2.555-0.73,3.6-1.492l2.493,2.494
		c-0.673,1.418-0.438,3.16,0.732,4.33c0.724,0.723,1.683,1.119,2.699,1.119c1.021,0,1.979-0.396,2.699-1.119
		c1.488-1.488,1.488-3.908,0-5.396c-1.126-1.127-2.907-1.361-4.32-0.723l-2.505-2.504c0.764-1.045,1.285-2.27,1.492-3.6h3.523
		c0.526,1.479,1.928,2.545,3.584,2.545c2.105,0,3.817-1.713,3.817-3.818C69.088,45.986,67.376,44.273,65.271,44.273z M59.897,36.395
		c0.242-0.24,0.561-0.373,0.899-0.373c0.341,0,0.66,0.133,0.899,0.373c0.497,0.496,0.497,1.303,0,1.799
		c-0.479,0.48-1.316,0.48-1.799,0C59.402,37.697,59.402,36.891,59.897,36.395z M40.103,38.193c-0.482,0.48-1.317,0.48-1.8,0
		c-0.495-0.496-0.495-1.303,0-1.799c0.242-0.24,0.561-0.373,0.9-0.373c0.339,0,0.658,0.133,0.899,0.373
		C40.597,36.891,40.597,37.697,40.103,38.193z M34.729,49.363c-0.701,0-1.271-0.57-1.271-1.273c0-0.701,0.57-1.271,1.271-1.271
		c0.703,0,1.272,0.57,1.272,1.271C36.002,48.793,35.433,49.363,34.729,49.363z M40.103,59.787c-0.482,0.48-1.317,0.48-1.8,0
		c-0.495-0.494-0.495-1.303,0-1.801c0.242-0.238,0.561-0.371,0.9-0.371c0.339,0,0.658,0.133,0.899,0.371
		C40.597,58.484,40.597,59.293,40.103,59.787z M59.897,57.986c0.242-0.238,0.561-0.371,0.899-0.371c0.341,0,0.66,0.133,0.899,0.371
		c0.497,0.498,0.497,1.307,0,1.801c-0.479,0.48-1.316,0.48-1.799,0C59.402,59.293,59.402,58.484,59.897,57.986z M50,31.549
		c0.702,0,1.272,0.57,1.272,1.271c0,0.703-0.57,1.273-1.272,1.273c-0.701,0-1.272-0.57-1.272-1.273
		C48.728,32.119,49.299,31.549,50,31.549z M50,64.633c-0.701,0-1.272-0.57-1.272-1.271c0-0.703,0.571-1.273,1.272-1.273
		c0.702,0,1.272,0.57,1.272,1.273C51.272,64.063,50.702,64.633,50,64.633z M50,53.816c-3.157,0-5.726-2.568-5.726-5.727
		c0-3.154,2.568-5.725,5.726-5.725s5.728,2.57,5.728,5.725C55.728,51.248,53.157,53.816,50,53.816z M65.271,49.363
		c-0.702,0-1.272-0.57-1.272-1.273c0-0.701,0.57-1.271,1.272-1.271s1.273,0.57,1.273,1.271
		C66.544,48.793,65.973,49.363,65.271,49.363z"/>
</g>
</svg>
