<?xml version="1.0" encoding="utf-8"?>
<!-- Generator: Adobe Illustrator 16.0.0, SVG Export Plug-In . SVG Version: 6.00 Build 0)  -->
<!DOCTYPE svg PUBLIC "-//W3C//DTD SVG 1.1//EN" "http://www.w3.org/Graphics/SVG/1.1/DTD/svg11.dtd">
<svg version="1.1" id="Layer_1" xmlns="http://www.w3.org/2000/svg" xmlns:xlink="http://www.w3.org/1999/xlink" x="0px" y="0px"
	 width="100px" height="100px" viewBox="0 0 100 100" enable-background="new 0 0 100 100" xml:space="preserve">
<g>
	<path d="M71.633,2.281H28.367c-4.212,0-7.635,3.423-7.635,7.635v80.168c0,4.213,3.423,7.635,7.635,7.635h43.266
		c4.212,0,7.635-3.422,7.635-7.635V9.916C79.268,5.704,75.845,2.281,71.633,2.281z M43.001,9.254c0-1.044,0.84-1.884,1.884-1.884
		h10.23c1.043,0,1.884,0.84,1.884,1.884v0.051c0,1.043-0.841,1.883-1.884,1.883h-10.23c-1.044,0-1.884-0.84-1.884-1.883V9.254z
		 M50,94.856c-2.278,0-4.136-1.857-4.136-4.135s1.858-4.136,4.136-4.136c2.277,0,4.135,1.858,4.135,4.136S52.277,94.856,50,94.856z
		 M72.905,82.449c0,0.7-0.573,1.272-1.272,1.272H28.367c-0.7,0-1.272-0.573-1.272-1.272V17.551c0-0.699,0.573-1.272,1.272-1.272
		h43.266c0.699,0,1.272,0.573,1.272,1.272V82.449z"/>
	<path d="M35.366,50.636h6.363c0.35,0,0.636-0.285,0.636-0.636v-5.727c0-0.702-0.57-1.272-1.273-1.272h-5.09
		c-0.702,0-1.272,0.57-1.272,1.272V50C34.729,50.352,35.015,50.636,35.366,50.636z"/>
	<path d="M58.271,50.636h6.363c0.35,0,0.636-0.285,0.636-0.636V29.003c0-0.702-0.57-1.272-1.272-1.272h-5.09
		c-0.702,0-1.272,0.571-1.272,1.272V50C57.635,50.352,57.92,50.636,58.271,50.636z"/>
	<path d="M46.818,50.636h6.363c0.35,0,0.636-0.285,0.636-0.636V35.366c0-0.702-0.57-1.273-1.273-1.273h-5.09
		c-0.702,0-1.272,0.571-1.272,1.273V50C46.182,50.352,46.468,50.636,46.818,50.636z"/>
	<path d="M66.555,74.814h-33.11c-0.696,0-1.26,0.564-1.26,1.26v0.025c0,0.696,0.564,1.26,1.26,1.26h33.11
		c0.696,0,1.26-0.564,1.26-1.26v-0.025C67.815,75.378,67.251,74.814,66.555,74.814z"/>
	<path d="M66.555,59.544h-33.11c-0.696,0-1.26,0.564-1.26,1.26v0.024c0,0.696,0.564,1.26,1.26,1.26h33.11
		c0.696,0,1.26-0.564,1.26-1.26v-0.024C67.815,60.108,67.251,59.544,66.555,59.544z"/>
	<path d="M66.555,67.179h-33.11c-0.696,0-1.26,0.564-1.26,1.26v0.025c0,0.696,0.564,1.26,1.26,1.26h33.11
		c0.696,0,1.26-0.564,1.26-1.26v-0.025C67.815,67.743,67.251,67.179,66.555,67.179z"/>
</g>
</svg>
