<?xml version="1.0" encoding="utf-8"?>
<!-- Generator: Adobe Illustrator 16.0.0, SVG Export Plug-In . SVG Version: 6.00 Build 0)  -->
<!DOCTYPE svg PUBLIC "-//W3C//DTD SVG 1.1//EN" "http://www.w3.org/Graphics/SVG/1.1/DTD/svg11.dtd">
<svg version="1.1" id="Layer_1" xmlns="http://www.w3.org/2000/svg" xmlns:xlink="http://www.w3.org/1999/xlink" x="0px" y="0px"
	 width="100px" height="100px" viewBox="0 0 100 100" enable-background="new 0 0 100 100" xml:space="preserve">
<g>
	<path d="M71.633,2.281H28.368c-4.212,0-7.636,3.423-7.636,7.635v80.168c0,4.213,3.424,7.635,7.636,7.635h43.265
		c4.213,0,7.635-3.422,7.635-7.635V9.916C79.268,5.704,75.846,2.281,71.633,2.281z M43.001,9.254c0-1.044,0.84-1.884,1.884-1.884
		h10.23C56.16,7.371,57,8.21,57,9.254v0.051c0,1.043-0.84,1.883-1.885,1.883h-10.23c-1.044,0-1.884-0.84-1.884-1.883V9.254z
		 M50,94.856c-2.278,0-4.135-1.857-4.135-4.135s1.856-4.136,4.135-4.136c2.279,0,4.136,1.858,4.136,4.136S52.279,94.856,50,94.856z
		 M72.906,82.449c0,0.7-0.572,1.272-1.273,1.272H28.368c-0.699,0-1.272-0.573-1.272-1.272V17.551c0-0.699,0.573-1.272,1.272-1.272
		h43.265c0.701,0,1.273,0.573,1.273,1.272V82.449z"/>
	<path d="M51.273,35.43v15.207c0,1.407-1.138,2.545-2.545,2.545H33.522c0.676,8.865,8.325,15.782,17.484,15.24
		c8.244-0.487,15.021-7.263,15.508-15.508C67.055,43.755,60.139,36.106,51.273,35.43z"/>
	<path d="M48.728,49.364V35.43c-8.119,0.621-14.585,7.088-15.206,15.207h13.934C48.158,50.636,48.728,50.066,48.728,49.364z"/>
</g>
</svg>
