<?xml version="1.0" encoding="utf-8"?>
<!-- Generator: Adobe Illustrator 16.0.0, SVG Export Plug-In . SVG Version: 6.00 Build 0)  -->
<!DOCTYPE svg PUBLIC "-//W3C//DTD SVG 1.1//EN" "http://www.w3.org/Graphics/SVG/1.1/DTD/svg11.dtd">
<svg version="1.1" id="Layer_1" xmlns="http://www.w3.org/2000/svg" xmlns:xlink="http://www.w3.org/1999/xlink" x="0px" y="0px"
	 width="100px" height="100px" viewBox="0 0 100 100" enable-background="new 0 0 100 100" xml:space="preserve">
<g>
	<path d="M71.633,2.28H28.367c-4.212,0-7.635,3.423-7.635,7.635v80.168c0,4.212,3.423,7.636,7.635,7.636h43.266
		c4.213,0,7.635-3.424,7.635-7.636V9.916C79.268,5.703,75.846,2.28,71.633,2.28z M43.001,9.254c0-1.043,0.841-1.884,1.884-1.884
		h10.23c1.044,0,1.884,0.841,1.884,1.884v0.05c0,1.043-0.84,1.884-1.884,1.884h-10.23c-1.043,0-1.884-0.84-1.884-1.884V9.254z
		 M50,94.855c-2.277,0-4.136-1.857-4.136-4.136c0-2.277,1.858-4.136,4.136-4.136c2.278,0,4.136,1.858,4.136,4.136
		C54.136,92.998,52.278,94.855,50,94.855z M72.905,82.449c0,0.699-0.572,1.272-1.272,1.272H28.367c-0.7,0-1.272-0.573-1.272-1.272
		V17.551c0-0.7,0.572-1.272,1.272-1.272h43.266c0.7,0,1.272,0.573,1.272,1.272V82.449z"/>
	<path d="M66.556,74.813h-33.11c-0.696,0-1.261,0.564-1.261,1.261v0.024c0,0.696,0.564,1.261,1.261,1.261h33.11
		c0.695,0,1.26-0.564,1.26-1.261v-0.024C67.815,75.378,67.251,74.813,66.556,74.813z"/>
	<path d="M66.556,67.179h-33.11c-0.696,0-1.261,0.564-1.261,1.26v0.024c0,0.696,0.564,1.26,1.261,1.26h33.11
		c0.695,0,1.26-0.564,1.26-1.26v-0.024C67.815,67.743,67.251,67.179,66.556,67.179z"/>
	<path d="M50.84,46.232c-2.927,0-5.18-2.195-5.18-2.195l-2.048,2.84c0,0,2.078,2.31,5.853,2.75v2.692h2.516v-2.692
		c3.569-0.469,5.648-3.013,5.648-5.999c0-6.555-9.86-5.94-9.86-9.422c0-1.465,1.374-2.488,3.13-2.488
		c2.604,0,4.594,1.815,4.594,1.815l1.639-3.074c0,0-1.755-1.844-5.15-2.135v-2.692h-2.516v2.751
		c-3.248,0.526-5.502,2.866-5.502,5.88c0,6.291,9.89,5.94,9.89,9.452C53.853,45.415,52.418,46.232,50.84,46.232z"/>
	<path d="M66.556,59.543h-33.11c-0.696,0-1.261,0.564-1.261,1.26v0.025c0,0.696,0.564,1.26,1.261,1.26h33.11
		c0.695,0,1.26-0.564,1.26-1.26v-0.025C67.815,60.108,67.251,59.543,66.556,59.543z"/>
</g>
</svg>
