<?xml version="1.0" encoding="utf-8"?>
<!-- Generator: Adobe Illustrator 16.0.0, SVG Export Plug-In . SVG Version: 6.00 Build 0)  -->
<!DOCTYPE svg PUBLIC "-//W3C//DTD SVG 1.1//EN" "http://www.w3.org/Graphics/SVG/1.1/DTD/svg11.dtd">
<svg version="1.1" id="Layer_1" xmlns="http://www.w3.org/2000/svg" xmlns:xlink="http://www.w3.org/1999/xlink" x="0px" y="0px"
	 width="100px" height="100px" viewBox="0 0 100 100" enable-background="new 0 0 100 100" xml:space="preserve">
<g>
	<path d="M71.633,2.28H28.367c-4.212,0-7.635,3.423-7.635,7.636v80.168c0,4.213,3.423,7.636,7.635,7.636h43.266
		c4.213,0,7.635-3.423,7.635-7.636V9.916C79.268,5.703,75.846,2.28,71.633,2.28z M43.002,9.255c0-1.044,0.839-1.884,1.884-1.884
		h10.23c1.043,0,1.883,0.84,1.883,1.884v0.05c0,1.044-0.84,1.884-1.883,1.884h-10.23c-1.045,0-1.884-0.84-1.884-1.884V9.255z
		 M50,94.856c-2.278,0-4.136-1.857-4.136-4.137c0-2.277,1.857-4.135,4.136-4.135c2.277,0,4.136,1.857,4.136,4.135
		C54.136,92.999,52.277,94.856,50,94.856z M72.905,82.449c0,0.699-0.573,1.272-1.272,1.272H28.367c-0.7,0-1.272-0.573-1.272-1.272
		V17.551c0-0.7,0.572-1.272,1.272-1.272h43.266c0.699,0,1.272,0.572,1.272,1.272V82.449z"/>
	<path d="M66.555,59.544H33.445c-0.696,0-1.26,0.564-1.26,1.26v0.025c0,0.695,0.563,1.26,1.26,1.26h33.109
		c0.697,0,1.261-0.564,1.261-1.26v-0.025C67.815,60.108,67.252,59.544,66.555,59.544z"/>
	<path d="M50,53.182c8.433,0,15.271-6.837,15.271-15.271c0-8.433-6.838-15.27-15.271-15.27s-15.271,6.837-15.271,15.27
		C34.729,46.345,41.567,53.182,50,53.182z M50,25.186c7.029,0,12.726,5.696,12.726,12.726c0,7.028-5.696,12.725-12.726,12.725
		c-7.028,0-12.725-5.696-12.725-12.725C37.275,30.882,42.972,25.186,50,25.186z"/>
	<path d="M48.792,38.313c0.157,0.47,0.575,0.808,1.068,0.862l5.728,0.637c0.045,0.005,0.092,0.008,0.14,0.008
		c0.641,0,1.192-0.481,1.264-1.134c0.077-0.698-0.427-1.327-1.126-1.404l-4.915-0.545l-2.289-6.864
		c-0.222-0.665-0.938-1.029-1.608-0.804c-0.666,0.223-1.026,0.942-0.806,1.608L48.792,38.313z"/>
	<path d="M66.555,67.18H33.445c-0.696,0-1.26,0.563-1.26,1.259v0.025c0,0.696,0.563,1.26,1.26,1.26h33.109
		c0.697,0,1.261-0.563,1.261-1.26v-0.025C67.815,67.743,67.252,67.18,66.555,67.18z"/>
	<path d="M66.555,74.814H33.445c-0.696,0-1.26,0.564-1.26,1.26V76.1c0,0.695,0.563,1.26,1.26,1.26h33.109
		c0.697,0,1.261-0.564,1.261-1.26v-0.025C67.815,75.379,67.252,74.814,66.555,74.814z"/>
</g>
</svg>
