<?xml version="1.0" encoding="utf-8"?>
<!-- Generator: Adobe Illustrator 16.0.0, SVG Export Plug-In . SVG Version: 6.00 Build 0)  -->
<!DOCTYPE svg PUBLIC "-//W3C//DTD SVG 1.1//EN" "http://www.w3.org/Graphics/SVG/1.1/DTD/svg11.dtd">
<svg version="1.1" id="Layer_1" xmlns="http://www.w3.org/2000/svg" xmlns:xlink="http://www.w3.org/1999/xlink" x="0px" y="0px"
	 width="100px" height="100px" viewBox="0 0 100 100" enable-background="new 0 0 100 100" xml:space="preserve">
<g>
	<path d="M71.633,2.281H28.367c-4.212,0-7.635,3.422-7.635,7.635v80.168c0,4.213,3.423,7.635,7.635,7.635h43.266
		c4.213,0,7.635-3.422,7.635-7.635V9.916C79.268,5.703,75.846,2.281,71.633,2.281z M43.001,9.254c0-1.043,0.84-1.883,1.884-1.883
		h10.23c1.043,0,1.884,0.84,1.884,1.883v0.051c0,1.043-0.841,1.883-1.884,1.883h-10.23c-1.044,0-1.884-0.84-1.884-1.883V9.254z
		 M50,94.855c-2.278,0-4.136-1.857-4.136-4.135c0-2.279,1.857-4.135,4.136-4.135c2.277,0,4.136,1.855,4.136,4.135
		C54.136,92.998,52.277,94.855,50,94.855z M72.905,82.449c0,0.699-0.573,1.271-1.272,1.271H28.367c-0.7,0-1.272-0.572-1.272-1.271
		V17.551c0-0.701,0.572-1.273,1.272-1.273h43.266c0.699,0,1.272,0.572,1.272,1.273V82.449z"/>
	<path d="M50,34.094c-8.433,0-15.271,6.836-15.271,15.27S41.567,64.633,50,64.633s15.271-6.836,15.271-15.27
		S58.433,34.094,50,34.094z M50,62.088c-7.028,0-12.726-5.695-12.726-12.725S42.972,36.639,50,36.639s12.725,5.695,12.725,12.725
		S57.028,62.088,50,62.088z"/>
	<path d="M55.865,48.734l-4.916-0.545l-2.288-6.863c-0.223-0.666-0.937-1.029-1.608-0.805c-0.667,0.223-1.026,0.941-0.805,1.609
		l2.545,7.635c0.157,0.471,0.573,0.809,1.067,0.863l5.727,0.637c0.046,0.004,0.093,0.006,0.141,0.006c0.64,0,1.191-0.48,1.264-1.133
		C57.068,49.439,56.565,48.813,55.865,48.734z"/>
</g>
</svg>
