<?xml version="1.0" encoding="utf-8"?>
<!-- Generator: Adobe Illustrator 16.0.0, SVG Export Plug-In . SVG Version: 6.00 Build 0)  -->
<!DOCTYPE svg PUBLIC "-//W3C//DTD SVG 1.1//EN" "http://www.w3.org/Graphics/SVG/1.1/DTD/svg11.dtd">
<svg version="1.1" id="Layer_1" xmlns="http://www.w3.org/2000/svg" xmlns:xlink="http://www.w3.org/1999/xlink" x="0px" y="0px"
	 width="100px" height="100px" viewBox="0 0 100 100" enable-background="new 0 0 100 100" xml:space="preserve">
<g>
	<path d="M71.633,2.28H28.367c-4.212,0-7.635,3.423-7.635,7.636v80.168c0,4.213,3.423,7.636,7.635,7.636h43.266
		c4.213,0,7.635-3.423,7.635-7.636V9.916C79.268,5.703,75.846,2.28,71.633,2.28z M43.001,9.255c0-1.044,0.84-1.884,1.885-1.884
		h10.229c1.044,0,1.884,0.84,1.884,1.884v0.05c0,1.044-0.84,1.884-1.884,1.884H44.886c-1.045,0-1.885-0.84-1.885-1.884V9.255z
		 M50,94.856c-2.277,0-4.135-1.857-4.135-4.137c0-2.277,1.857-4.135,4.135-4.135c2.278,0,4.136,1.857,4.136,4.135
		C54.136,92.999,52.278,94.856,50,94.856z M72.905,82.449c0,0.699-0.572,1.272-1.272,1.272H28.367c-0.699,0-1.272-0.573-1.272-1.272
		V17.551c0-0.7,0.573-1.272,1.272-1.272h43.266c0.7,0,1.272,0.572,1.272,1.272V82.449z"/>
	<path d="M61.89,39.941c-0.59-1.817-1.665-1.857-2.389-0.089L55.09,50.636l-3.91-6.843c-0.649-1.135-1.657-1.107-2.242,0.062
		l-5.301,10.6l-3.319-4.745c-0.624-0.889-1.587-0.853-2.139,0.084l-6.131,10.376c-0.626,1.055-0.131,1.92,1.094,1.92h34.195
		c0.964,0,1.507-0.75,1.209-1.665L61.89,39.941z"/>
</g>
</svg>
